<svg xmlns="http://www.w3.org/2000/svg" width="100%" height="100%" viewBox="0 0 16 16" fill="none">
    <path d="M1.33325 7.99992C1.33325 4.31802 4.31802 1.33325 7.99992 1.33325C11.6818 1.33325 14.6666 4.31802 14.6666 7.99992C14.6666 11.6818 11.6818 14.6666 7.99992 14.6666C4.31802 14.6666 1.33325 11.6818 1.33325 7.99992ZM8.66659 5.74919C8.66659 5.381 8.36811 5.08252 7.99992 5.08252C7.63173 5.08252 7.33325 5.381 7.33325 5.74919V5.74994C7.33325 6.11813 7.63173 6.4166 7.99992 6.4166C8.36811 6.4166 8.66659 6.11813 8.66659 5.74994V5.74919ZM8.66659 7.99994C8.66659 7.63175 8.36811 7.33327 7.99992 7.33327C7.63173 7.33327 7.33325 7.63175 7.33325 7.99994V10.6666C7.33325 11.0348 7.63173 11.3333 7.99992 11.3333C8.36811 11.3333 8.66659 11.0348 8.66659 10.6666V7.99994Z" fill="currentColor"/>
</svg>