<svg xmlns="http://www.w3.org/2000/svg" width="64" height="64" viewBox="0 0 16 16" fill="none">
  <path fill-rule="evenodd" clip-rule="evenodd" d="M1.2334 7.99909C1.2334 4.26196 4.26294 1.23242 8.00006 1.23242C11.7372 1.23242 14.7667 4.26196 14.7667 7.99909C14.7667 11.7362 11.7372 14.7658 8.00006 14.7658C4.26294 14.7658 1.2334 11.7362 1.2334 7.99909ZM10.7093 7.1137C11.0133 6.90607 11.0915 6.49126 10.8839 6.1872C10.6763 5.88314 10.2614 5.80497 9.95738 6.0126L9.88986 6.05871C8.79593 6.8057 7.85299 7.74863 7.1073 8.83738L6.13782 7.86894C5.87733 7.60873 5.45522 7.60895 5.19501 7.86944C4.9348 8.12993 4.93502 8.55204 5.19551 8.81225L6.75631 10.3714C6.90324 10.5181 7.11017 10.5881 7.31601 10.5605C7.52185 10.5329 7.70308 10.411 7.80618 10.2307C8.50676 9.00564 9.47632 7.95563 10.6418 7.15982L10.7093 7.1137Z" fill="currentColor"/>
</svg>